<?xml version="1.0" encoding="UTF-8" standalone="no"?>
<svg
   xmlns:dc="http://purl.org/dc/elements/1.1/"
   xmlns:cc="http://creativecommons.org/ns#"
   xmlns:rdf="http://www.w3.org/1999/02/22-rdf-syntax-ns#"
   xmlns:svg="http://www.w3.org/2000/svg"
   xmlns="http://www.w3.org/2000/svg"
   viewBox="0 0 160 50"
   height="50"
   width="160"
   version="1.1"
   id="svg4151">
  <metadata
     id="metadata4157">
    <rdf:RDF>
      <cc:Work
         rdf:about="">
        <dc:format>image/svg+xml</dc:format>
        <dc:type
           rdf:resource="http://purl.org/dc/dcmitype/StillImage" />
        <dc:title></dc:title>
      </cc:Work>
    </rdf:RDF>
  </metadata>
  <defs
     id="defs4155" />
  <g
     id="text4701"
     style="font-style:normal;font-weight:normal;font-size:28.36300278px;line-height:125%;font-family:sans-serif;letter-spacing:0px;word-spacing:0px;fill:#ffffff;fill-opacity:0.8;stroke:#333333;stroke-width:0.44261572;stroke-linecap:butt;stroke-linejoin:miter;stroke-miterlimit:4;stroke-dasharray:none;stroke-opacity:0.8">
    <path
       id="path4235"
       style="font-style:normal;font-variant:normal;font-weight:normal;font-stretch:normal;font-size:31.90837669px;line-height:125%;font-family:'News Gothic Std';-inkscape-font-specification:'News Gothic Std, Normal';text-align:start;writing-mode:lr-tb;text-anchor:start;fill:#ffffff;fill-opacity:0.8;stroke:#333333;stroke-width:0.44261572;stroke-miterlimit:4;stroke-dasharray:none;stroke-opacity:0.8"
       d="m 13.061957,9.7318434 -3.7013721,0 -6.9879345,24.8247176 2.6803036,0 2.1378613,-7.913278 8.0728197,0 2.265494,7.913278 2.680304,0 -7.147476,-24.8247176 z m 1.595418,14.6778536 -6.7964838,0 3.2546548,-13.018618 0.06382,0 3.478013,13.018618 z" />
    <path
       id="path4237"
       style="font-style:normal;font-variant:normal;font-weight:normal;font-stretch:normal;font-size:31.90837669px;line-height:125%;font-family:'News Gothic Std';-inkscape-font-specification:'News Gothic Std, Normal';text-align:start;writing-mode:lr-tb;text-anchor:start;fill:#ffffff;fill-opacity:0.8;stroke:#333333;stroke-width:0.44261572;stroke-miterlimit:4;stroke-dasharray:none;stroke-opacity:0.8"
       d="M 38.799054,16.432603 C 37.969436,12.34833 35.193408,9.2213094 30.63051,9.2213094 c -5.169157,0 -8.998163,4.7543486 -8.998163,12.9228926 0,8.168544 3.829006,12.922893 8.998163,12.922893 2.456945,0 4.594806,-1.084885 5.934958,-2.935571 l 0,2.425037 2.233586,0 0,-11.901825 -7.65801,0 0,2.233586 5.041523,0 c 0.255267,3.765189 -0.957251,8.040911 -5.552057,8.040911 -3.446105,0 -6.381676,-3.254654 -6.381676,-10.785031 0,-7.530377 2.935571,-10.785031 6.381676,-10.785031 3.637555,0 4.945798,2.776028 5.647782,5.679691 l 2.520762,-0.606259 z" />
    <path
       id="path4239"
       style="font-style:normal;font-variant:normal;font-weight:normal;font-stretch:normal;font-size:31.90837669px;line-height:125%;font-family:'News Gothic Std';-inkscape-font-specification:'News Gothic Std, Normal';text-align:start;writing-mode:lr-tb;text-anchor:start;fill:#ffffff;fill-opacity:0.8;stroke:#333333;stroke-width:0.44261572;stroke-miterlimit:4;stroke-dasharray:none;stroke-opacity:0.8"
       d="m 51.652644,9.7318434 0,24.8247176 2.616487,0 0,-11.167932 3.797096,0 c 6.764576,0 8.551445,-3.829006 8.551445,-6.860301 0,-2.871754 -1.946411,-6.7964846 -8.136636,-6.7964846 l -6.828392,0 z m 2.616487,2.2335866 1.818777,0 c 3.446105,0 7.913277,-0.127634 7.913277,4.594806 0,4.467173 -4.148089,4.594806 -7.562285,4.594806 l -2.169769,0 0,-9.189612 z" />
    <path
       id="path4241"
       style="font-style:normal;font-variant:normal;font-weight:normal;font-stretch:normal;font-size:31.90837669px;line-height:125%;font-family:'News Gothic Std';-inkscape-font-specification:'News Gothic Std, Normal';text-align:start;writing-mode:lr-tb;text-anchor:start;fill:#ffffff;fill-opacity:0.8;stroke:#333333;stroke-width:0.44261572;stroke-miterlimit:4;stroke-dasharray:none;stroke-opacity:0.8"
       d="m 72.08996,16.943137 -2.488853,0 0,17.613424 2.488853,0 0,-9.987322 c 0.957252,-2.552671 2.648396,-6.062592 5.90305,-5.615875 l 0,-2.265494 -0.957251,0 c -2.616487,0 -3.892822,1.946411 -4.881982,4.052363 l -0.06382,0 0,-3.797096 z" />
    <path
       id="path4243"
       style="font-style:normal;font-variant:normal;font-weight:normal;font-stretch:normal;font-size:31.90837669px;line-height:125%;font-family:'News Gothic Std';-inkscape-font-specification:'News Gothic Std, Normal';text-align:start;writing-mode:lr-tb;text-anchor:start;fill:#ffffff;fill-opacity:0.8;stroke:#333333;stroke-width:0.44261572;stroke-miterlimit:4;stroke-dasharray:none;stroke-opacity:0.8"
       d="m 86.54994,35.067095 c 3.92473,0 7.051751,-2.712212 7.051751,-9.317246 0,-6.605034 -3.127021,-9.317246 -7.051751,-9.317246 -3.92473,0 -7.051751,2.712212 -7.051751,9.317246 0,6.605034 3.127021,9.317246 7.051751,9.317246 z m 0,-2.105953 c -3.829005,0 -4.562898,-4.211906 -4.562898,-7.211293 0,-2.999388 0.733893,-7.211294 4.562898,-7.211294 3.829005,0 4.562898,4.211906 4.562898,7.211294 0,2.999387 -0.733893,7.211293 -4.562898,7.211293 z" />
    <path
       id="path4245"
       style="font-style:normal;font-variant:normal;font-weight:normal;font-stretch:normal;font-size:31.90837669px;line-height:125%;font-family:'News Gothic Std';-inkscape-font-specification:'News Gothic Std, Normal';text-align:start;writing-mode:lr-tb;text-anchor:start;fill:#ffffff;fill-opacity:0.8;stroke:#333333;stroke-width:0.44261572;stroke-miterlimit:4;stroke-dasharray:none;stroke-opacity:0.8"
       d="m 99.573542,16.943137 -2.488853,0 0,18.794033 c 0,1.308244 0.159541,2.776029 -1.659236,2.776029 -0.319084,0 -0.670076,-0.06382 -1.021068,-0.127633 l 0,2.393128 1.148702,0 c 2.584578,0 4.020455,-1.116793 4.020455,-4.339539 l 0,-19.496018 z m 0,-7.2112936 -2.488853,0 0,2.7441206 2.488853,0 0,-2.7441206 z" />
    <path
       id="path4247"
       style="font-style:normal;font-variant:normal;font-weight:normal;font-stretch:normal;font-size:31.90837669px;line-height:125%;font-family:'News Gothic Std';-inkscape-font-specification:'News Gothic Std, Normal';text-align:start;writing-mode:lr-tb;text-anchor:start;fill:#ffffff;fill-opacity:0.8;stroke:#333333;stroke-width:0.44261572;stroke-miterlimit:4;stroke-dasharray:none;stroke-opacity:0.8"
       d="m 116.29752,26.164657 c 0.35099,-4.30763 -1.11679,-9.732054 -6.19022,-9.732054 -3.92473,0 -7.05175,2.712212 -7.05175,9.317246 0,6.605034 3.12702,9.317246 7.05175,9.317246 3.03129,0 5.39251,-1.691144 6.34976,-3.956639 l -1.78686,-1.18061 c -0.89344,1.531602 -2.45695,3.031296 -4.30764,3.031296 -2.55267,0 -4.69053,-1.754961 -4.69053,-6.796485 l 10.62549,0 z m -10.56167,-2.105952 c 0.0319,-2.488854 1.37206,-5.52015 4.18,-5.52015 2.61648,0 3.829,3.254655 3.76519,5.52015 l -7.94519,0 z" />
    <path
       id="path4249"
       style="font-style:normal;font-variant:normal;font-weight:normal;font-stretch:normal;font-size:31.90837669px;line-height:125%;font-family:'News Gothic Std';-inkscape-font-specification:'News Gothic Std, Normal';text-align:start;writing-mode:lr-tb;text-anchor:start;fill:#ffffff;fill-opacity:0.8;stroke:#333333;stroke-width:0.44261572;stroke-miterlimit:4;stroke-dasharray:none;stroke-opacity:0.8"
       d="m 132.14551,20.899775 c -0.95725,-2.648395 -2.74412,-4.467172 -5.64778,-4.467172 -3.92473,0 -7.05175,2.712212 -7.05175,9.317246 0,6.605034 3.12702,9.317246 7.05175,9.317246 2.83985,0 5.10534,-2.074045 6.12641,-4.754349 l -2.01023,-0.893434 c -0.7658,1.723052 -1.97832,3.446105 -4.11618,3.54183 -3.829,0 -4.5629,-4.211906 -4.5629,-7.211293 0,-2.999388 0.7339,-7.211294 4.5629,-7.211294 1.97832,-0.06382 2.93557,1.691144 3.54183,3.318472 l 2.10595,-0.957252 z" />
    <path
       id="path4251"
       style="font-style:normal;font-variant:normal;font-weight:normal;font-stretch:normal;font-size:31.90837669px;line-height:125%;font-family:'News Gothic Std';-inkscape-font-specification:'News Gothic Std, Normal';text-align:start;writing-mode:lr-tb;text-anchor:start;fill:#ffffff;fill-opacity:0.8;stroke:#333333;stroke-width:0.44261572;stroke-miterlimit:4;stroke-dasharray:none;stroke-opacity:0.8"
       d="m 139.54378,11.231537 -2.48885,0 0,5.7116 -2.68031,0 0,2.105952 2.68031,0 0,9.955414 c 0,3.222746 -0.22336,6.062592 3.98854,6.062592 0.86153,0 1.69115,-0.223359 2.48886,-0.510534 l 0,-1.818778 c -0.60626,0.159542 -1.27634,0.223359 -1.97832,0.223359 -2.04214,0 -2.01023,-1.116794 -2.01023,-2.839846 l 0,-11.072207 3.98855,0 0,-2.105952 -3.98855,0 0,-5.7116 z" />
    <path
       id="path4253"
       style="font-style:normal;font-variant:normal;font-weight:normal;font-stretch:normal;font-size:31.90837669px;line-height:125%;font-family:'News Gothic Std';-inkscape-font-specification:'News Gothic Std, Normal';text-align:start;writing-mode:lr-tb;text-anchor:start;fill:#ffffff;fill-opacity:0.8;stroke:#333333;stroke-width:0.44261572;stroke-miterlimit:4;stroke-dasharray:none;stroke-opacity:0.8"
       d="m 157.27636,19.495807 c -1.37206,-2.042136 -3.4142,-3.063204 -5.87114,-3.063204 -2.90367,0 -5.39252,1.850685 -5.39252,4.881981 0,6.317859 9.28534,4.211906 9.28534,8.64717 0,2.010228 -1.62733,2.999388 -3.44611,2.999388 -2.10595,0 -3.63755,-1.021068 -4.5948,-2.839846 l -1.97832,1.244427 c 1.43587,2.456945 3.73328,3.701372 6.57312,3.701372 3.31847,0 5.77542,-2.105953 5.77542,-5.552058 0,-5.934958 -9.28534,-4.052364 -9.28534,-8.359995 0,-1.786869 1.5316,-2.616487 3.15893,-2.616487 1.85069,0 3.0313,0.861527 4.02046,2.329312 l 1.75496,-1.37206 z" />
  </g>
</svg>
